<?xml version="1.0"?>
<svg width="1024" height="1024" xmlns="http://www.w3.org/2000/svg">
 <defs>
  <clipPath id="clip1">
   <path id="svg_1" d="m164.050781,318l210.949219,0l0,212l-210.949219,0l0,-212zm0,0"/>
  </clipPath>
  <clipPath id="clip2">
   <path id="svg_2" d="m406,255.683594l184,0l0,267.316406l-184,0l0,-267.316406zm0,0"/>
  </clipPath>
  <clipPath id="clip3">
   <path id="svg_3" d="m406,558l212,0l0,210.332031l-212,0l0,-210.332031zm0,0"/>
  </clipPath>
  <clipPath id="clip4">
   <path id="svg_4" d="m649,318l210.9375,0l0,212l-210.9375,0l0,-212zm0,0"/>
  </clipPath>
 </defs>
 <g>
  <title>background</title>
  <rect fill="none" id="canvas_background" height="402" width="582" y="-1" x="-1"/>
 </g>
 <g>
  <title>Layer 1</title>
  <g id="surface1">
   <rect id="svg_5" fill="#fa631d" height="1024" width="1024"/>
   <g id="svg_6" clip-rule="nonzero" clip-path="url(#clip1)">
    <path id="svg_7" fill-rule="nonzero" fill="#ffffff" d="m359.628906,529.066406l-181.027344,0c-8.035156,0 -14.546875,-6.515625 -14.546875,-14.550781l0,-181.023438c0,-8.039063 6.511719,-14.550781 14.546875,-14.550781l181.027344,0c8.039063,0 14.550781,6.511719 14.550781,14.550781l0,181.023438c0,8.035156 -6.511719,14.550781 -14.550781,14.550781"/>
   </g>
   <g id="svg_8" clip-rule="nonzero" clip-path="url(#clip2)">
    <path id="svg_9" fill-rule="nonzero" fill="#ffffff" d="m580.066406,462.800781l-153.386719,58.703125c-9.523438,3.648438 -19.75,-3.386719 -19.75,-13.585938l0,-178.96875c0,-6.03125 3.714844,-11.433594 9.347656,-13.585938l153.390625,-58.707031c9.523438,-3.648438 19.746094,3.386719 19.746094,13.589844l0,178.964844c0,6.027344 -3.71875,11.433594 -9.347656,13.589844"/>
   </g>
   <g id="svg_10" clip-rule="nonzero" clip-path="url(#clip3)">
    <path id="svg_11" fill-rule="nonzero" fill="#ffffff" d="m602.503906,768.332031l-181.023438,0c-8.039063,0 -14.550781,-6.515625 -14.550781,-14.546875l0,-181.027344c0,-8.039063 6.511719,-14.550781 14.550781,-14.550781l181.023438,0c8.035156,0 14.550781,6.511719 14.550781,14.550781l0,181.027344c0,8.03125 -6.515625,14.546875 -14.550781,14.546875"/>
   </g>
   <g id="svg_12" clip-rule="nonzero" clip-path="url(#clip4)">
    <path id="svg_13" fill-rule="nonzero" fill="#ffffff" d="m845.378906,529.066406l-181.023438,0c-8.039063,0 -14.550781,-6.515625 -14.550781,-14.550781l0,-181.023438c0,-8.039063 6.511719,-14.550781 14.550781,-14.550781l181.023438,0c8.039063,0 14.550781,6.511719 14.550781,14.550781l0,181.023438c0,8.035156 -6.511719,14.550781 -14.550781,14.550781"/>
   </g>
  </g>
 </g>
</svg>