<svg width="117" height="92" viewBox="0 0 117 92" fill="none" xmlns="http://www.w3.org/2000/svg">
<path d="M44.1622 26.7647H26.4344C25.662 26.7647 25 26.1395 25 25.3303V7.60255C25 6.83018 25.6253 6.16815 26.4344 6.16815H44.1622C44.9345 6.16815 45.5966 6.7934 45.5966 7.60255V25.3303C45.5598 26.1395 44.9345 26.7647 44.1622 26.7647Z" fill="#FA671D"/>
<path d="M65.7517 20.2915L50.7089 26.0291C49.7894 26.3969 48.7596 25.6981 48.7596 24.705V7.16118C48.7596 6.57271 49.1274 6.0578 49.6791 5.83712L64.7219 0.099503C65.6414 -0.268293 66.6712 0.430521 66.6712 1.42357V18.9674C66.6712 19.5559 66.3034 20.0708 65.7517 20.2915Z" fill="#FA671D"/>
<path d="M67.9585 50.2301H50.2308C49.4584 50.2301 48.7964 49.6049 48.7964 48.7957V31.0679C48.7964 30.2956 49.4216 29.6336 50.2308 29.6336H67.9585C68.7309 29.6336 69.3929 30.2588 69.3929 31.0679V48.7957C69.3561 49.6049 68.7309 50.2301 67.9585 50.2301Z" fill="#FA671D"/>
<path d="M91.7549 26.7647H73.9904C73.218 26.7647 72.5559 26.1395 72.5559 25.3303V7.60255C72.5559 6.83018 73.1812 6.16815 73.9904 6.16815H91.7181C92.4905 6.16815 93.1525 6.7934 93.1525 7.60255V25.3303C93.1893 26.1395 92.5273 26.7647 91.7549 26.7647Z" fill="#FA671D"/>
<path d="M21.2375 90.2017C18.283 92.8198 13.4709 92.0739 10.9552 89.0023C8.52718 86.0332 8.65882 81.7623 11.3062 78.8809C13.7927 76.175 18.3561 75.5607 21.0912 77.9887C21.7202 77.6669 22.2906 77.3158 22.9049 77.0672C23.2413 76.9356 23.6509 76.9941 24.0165 76.9941C24.1043 76.9941 24.2213 77.1257 24.2652 77.2281C24.309 77.3158 24.2798 77.4329 24.2798 77.5352C24.2798 81.9232 24.2798 86.3111 24.2798 90.7136C24.2798 91.2987 24.2798 91.2987 23.6801 91.2987C22.7001 91.3279 21.8811 90.9623 21.2375 90.2017ZM13.0321 84.1317C13.0321 86.2964 14.7434 88.0224 16.8788 88.0224C19.0143 88.0224 20.7402 86.3111 20.7402 84.1756C20.7402 82.0109 19.0435 80.2704 16.9081 80.2557C14.758 80.2557 13.0321 81.9817 13.0321 84.1317Z" fill="#FA671D"/>
<path d="M61.4454 78.1057C62.1329 77.272 63.0105 76.9502 64.0636 76.9794C64.4292 76.9941 64.5316 77.1111 64.5316 77.4475C64.517 78.9833 64.5316 80.519 64.5316 82.0694C64.5316 84.9508 64.5316 87.8322 64.5316 90.7136C64.5316 91.3133 64.5316 91.3133 63.9319 91.3133C62.9081 91.3133 62.4254 91.1085 61.4162 90.2017C59.8658 91.5912 58.0229 91.9715 56.0044 91.7228C54.0006 91.4742 52.4064 90.4796 51.1485 88.9438C48.7059 85.9308 48.9253 81.6745 51.6019 78.837C54.103 76.1604 58.6226 75.6192 61.4454 78.1057ZM53.2401 84.1317C53.2401 86.2964 54.9513 88.0224 57.1014 88.0224C59.2369 88.0224 60.9628 86.3111 60.9628 84.1756C60.9628 82.0109 59.2661 80.2704 57.1307 80.2704C54.966 80.2558 53.2401 81.9817 53.2401 84.1317Z" fill="#FA671D"/>
<path d="M36.7561 79.0125C36.7561 79.5391 36.7561 80.0656 36.7561 80.5922C36.7561 80.9432 36.6244 81.0748 36.2734 80.8993C34.8546 80.2119 33.3335 80.168 31.8124 80.2704C31.6222 80.285 31.4174 80.3289 31.2566 80.4313C31.0957 80.5337 30.9055 80.7092 30.8909 80.8701C30.8763 81.0163 31.0518 81.2503 31.2127 81.3381C32.1341 81.7915 33.0702 82.2011 33.9917 82.6399C34.606 82.947 35.2642 83.2249 35.8054 83.6344C38.2918 85.4481 38.1602 89.1778 35.5713 90.8599C34.4305 91.6058 33.1434 91.8545 31.8124 91.8106C30.7885 91.7667 29.7793 91.6058 28.7701 91.4157C27.9949 91.2694 27.6 90.699 27.6 89.9238C27.6 89.1193 27.6 88.3295 27.6 87.5251C27.6 87.0278 27.7023 86.9693 28.1558 87.2033C29.5891 87.92 31.1103 88.2271 32.7046 87.9785C32.8947 87.9492 33.0849 87.8907 33.2604 87.8176C33.8747 87.5543 33.9478 86.8523 33.4066 86.4573C33.2311 86.3403 33.041 86.2526 32.8508 86.1648C31.8124 85.6821 30.7885 85.1848 29.7354 84.7168C27.6877 83.8246 26.9857 82.2742 27.0734 80.6507C27.1758 78.72 28.4922 77.2427 30.4814 76.7601C32.4559 76.2774 34.4305 76.4675 36.3758 76.9794C36.6244 77.0526 36.7122 77.1842 36.7122 77.4329C36.7561 77.9594 36.7561 78.486 36.7561 79.0125Z" fill="#FA671D"/>
<path d="M3.80286 76.9941C4.84133 76.9941 5.83593 76.9941 6.83052 76.9941C7.4302 76.9941 7.43021 76.9941 7.43021 77.5938C7.43021 78.1934 7.43021 78.7931 7.43021 79.4074C7.43021 80.3435 7.02066 80.7531 6.06995 80.7531C5.33863 80.7531 4.59268 80.7531 3.83211 80.7531C3.81749 80.9286 3.80286 81.0602 3.80286 81.1772C3.80286 82.9324 3.80286 84.6729 3.80286 86.4281C3.80286 87.3934 4.22702 87.8615 5.19236 87.9785C5.8213 88.0516 6.42099 88.0224 6.99142 87.7298C7.26932 87.5836 7.41558 87.7006 7.41558 88.0077C7.41558 89.0901 7.43021 90.1871 7.40095 91.2694C7.40095 91.4011 7.24006 91.6205 7.12305 91.6497C5.13386 92.03 2.61813 91.7667 1.03848 89.719C0.336412 88.8122 0.0146317 87.7737 0.0146317 86.6475C5.35612e-06 82.2596 0 77.8717 0 73.4838C0 73.162 0.102385 73.045 0.438791 73.0303C2.42798 73.0011 3.78824 74.3028 3.78824 76.292C3.80286 76.4968 3.80286 76.7308 3.80286 76.9941Z" fill="#FA671D"/>
<path d="M44.0108 76.9941C45.0932 76.9941 46.1024 77.0087 47.1116 76.9794C47.4919 76.9648 47.6528 77.0672 47.6381 77.4767C47.6089 78.1349 47.6382 78.8077 47.6235 79.4659C47.6235 80.285 47.1847 80.7238 46.3656 80.7384C45.6051 80.753 44.8299 80.7384 44.0401 80.7384C44.0254 80.8993 44.0108 81.0309 44.0108 81.1626C44.0108 82.9177 44.0108 84.6583 44.0108 86.4135C44.0108 87.3934 44.435 87.8468 45.4003 87.9638C46.0292 88.037 46.6289 88.0224 47.1994 87.7152C47.4773 87.5689 47.6381 87.6713 47.6381 87.9785C47.6381 89.0608 47.6528 90.1578 47.6235 91.2402C47.6235 91.3718 47.4626 91.5912 47.3456 91.6204C45.4003 91.9861 42.9138 91.7521 41.3195 89.7629C40.5736 88.8268 40.2372 87.7445 40.2226 86.5743C40.2079 82.2011 40.2226 77.8278 40.2079 73.4545C40.2079 73.1327 40.2957 73.0011 40.6467 73.0011C42.6359 72.9572 43.9962 74.2736 44.0108 76.2627C44.0108 76.4968 44.0108 76.7162 44.0108 76.9941Z" fill="#FA671D"/>
<path d="M78.5291 77.9156C80.8546 76.3359 83.3411 76.1604 85.9154 77.0672C88.0508 77.8132 89.3233 79.6415 89.3526 81.9086C89.3818 84.907 89.3526 87.92 89.3672 90.9184C89.3672 91.2841 89.2209 91.3864 88.8845 91.3718C88.2117 91.3572 87.5243 91.3718 86.8515 91.3718C86.0178 91.3718 85.579 90.9184 85.579 90.0701C85.579 87.452 85.579 84.8192 85.579 82.2011C85.579 81.2211 85.2426 80.7677 84.2919 80.5044C83.4435 80.2704 82.5952 80.2704 81.7469 80.5044C80.7815 80.7677 80.4305 81.2357 80.4305 82.2303C80.4305 85.0971 80.4159 87.9639 80.4451 90.8306C80.4451 91.2694 80.3281 91.4011 79.8893 91.3864C78.9971 91.3572 78.1049 91.3572 77.2127 91.3864C76.7885 91.4011 76.6715 91.2694 76.6715 90.8599C76.6861 88.0809 76.6861 85.3019 76.6861 82.5375C76.6861 81.0895 76.2912 80.6361 74.8578 80.4167C74.0826 80.2997 73.3221 80.3289 72.5907 80.6068C71.8448 80.8847 71.5376 81.3235 71.5376 82.1133C71.5376 85.024 71.523 87.9346 71.5523 90.8453C71.5523 91.2841 71.4353 91.4157 70.9965 91.4011C70.075 91.3718 69.1535 91.3864 68.2321 91.4011C67.8957 91.4011 67.7494 91.3133 67.7494 90.9477C67.764 87.9493 67.7348 84.9362 67.764 81.9378C67.7933 79.3051 69.6801 77.1989 72.4152 76.7454C74.3459 76.4237 76.2327 76.526 77.9732 77.5645C78.1488 77.6523 78.3389 77.7985 78.5291 77.9156Z" fill="#FA671D"/>
<path d="M103.438 78.1642C104.125 77.3305 105.003 77.0087 106.056 77.0379C106.407 77.0526 106.524 77.1549 106.524 77.506C106.509 78.837 106.524 80.168 106.524 81.4844C106.524 84.5705 106.524 87.6713 106.524 90.7575C106.524 91.3572 106.524 91.3572 105.924 91.3572C104.93 91.3718 104.111 91.0061 103.438 90.2163C101.741 91.7375 99.7519 92.0739 97.6018 91.6936C95.7589 91.3718 94.2816 90.3918 93.1115 88.9438C90.6689 85.8869 90.9322 81.616 93.6527 78.8077C96.1831 76.1896 100.659 75.6923 103.438 78.1642ZM102.955 84.2195C102.955 82.0548 101.258 80.3289 99.1083 80.3142C96.9583 80.2996 95.2323 82.0255 95.2323 84.1902C95.2323 86.3549 96.9583 88.0809 99.0937 88.0662C101.244 88.0662 102.955 86.3549 102.955 84.2195Z" fill="#FA671D"/>
<path d="M113.369 77.038C114.437 77.038 115.431 77.0526 116.441 77.0233C116.879 77.0087 117.026 77.155 116.996 77.5938C116.967 78.2519 116.996 78.9248 116.982 79.5829C116.967 80.3143 116.528 80.7677 115.797 80.7823C115.007 80.7969 114.203 80.7823 113.354 80.7823C113.354 81.0017 113.354 81.1772 113.354 81.3527C113.354 83.064 113.354 84.7607 113.354 86.472C113.354 87.4227 113.779 87.8907 114.7 88.0077C115.344 88.0955 115.958 88.0662 116.543 87.7591C116.821 87.6128 116.967 87.7445 116.967 88.0516C116.967 89.134 116.982 90.231 116.953 91.3133C116.953 91.4449 116.792 91.6643 116.66 91.679C114.612 92.0592 112.126 91.7667 110.546 89.7044C109.844 88.7829 109.552 87.7152 109.552 86.5744C109.537 82.2303 109.552 77.8863 109.537 73.5423C109.537 73.162 109.669 73.0596 110.034 73.045C112.009 73.045 113.325 74.3321 113.34 76.3213C113.369 76.5407 113.369 76.7601 113.369 77.038Z" fill="#FA671D"/>
</svg>
